<?xml version="1.0" encoding="utf-8"?>
<!-- Generator: Adobe Illustrator 23.0.3, SVG Export Plug-In . SVG Version: 6.00 Build 0)  -->
<svg version="1.1" id="Capa_1" xmlns="http://www.w3.org/2000/svg" xmlns:xlink="http://www.w3.org/1999/xlink" x="0px" y="0px"
	 viewBox="0 0 26.8 30.6" style="enable-background:new 0 0 26.8 30.6;" xml:space="preserve">
<style type="text/css">
	.st0{fill:none;}
	.st1{fill:#6AFFD7;}
	.st2{fill:#E76AFF;}
	.st3{fill:#9EF400;}
	.st4{fill:#FFDA35;}
</style>
<rect x="26.8" y="5.4" class="st0" width="36.6" height="0.9"/>
<rect x="28.1" y="7.1" class="st0" width="47.5" height="4.9"/>
<rect x="102.8" y="18.2" class="st0" width="2.2" height="0.3"/>
<rect x="83.9" y="6.5" class="st0" width="30.5" height="4.1"/>
<line class="st0" x1="74.3" y1="31.9" x2="76.4" y2="31.9"/>
<path class="st1" d="M14.5,11.6h-0.7c-2.5,0-4.5-2-4.5-4.5l0,0c0-2.5,2-4.5,4.5-4.5h0.7c2.5,0,4.5,2,4.5,4.5l0,0
	C19,9.6,16.9,11.6,14.5,11.6z"/>
<path class="st2" d="M21.7,19.6H21c-2.5,0-4.5-2-4.5-4.5l0,0c0-2.5,2-4.5,4.5-4.5h0.7c2.5,0,4.5,2,4.5,4.5l0,0
	C26.2,17.6,24.1,19.6,21.7,19.6z"/>
<path class="st3" d="M7.1,20.6H6.4c-2.5,0-4.5-2-4.5-4.5l0,0c0-2.5,2-4.5,4.5-4.5h0.7c2.5,0,4.5,2,4.5,4.5l0,0
	C11.6,18.6,9.5,20.6,7.1,20.6z"/>
<path class="st4" d="M14.5,27.6h-0.7c-2.5,0-4.5-2-4.5-4.5l0,0c0-2.5,2-4.5,4.5-4.5h0.7c2.5,0,4.5,2,4.5,4.5l0,0
	C19,25.6,16.9,27.6,14.5,27.6z"/>
</svg>
