<?xml version="1.0" encoding="utf-8"?>
<!-- Generator: Adobe Illustrator 23.0.3, SVG Export Plug-In . SVG Version: 6.00 Build 0)  -->
<svg version="1.1" id="Capa_1" xmlns="http://www.w3.org/2000/svg" xmlns:xlink="http://www.w3.org/1999/xlink" x="0px" y="0px"
	 viewBox="0 0 111.2 30.6" style="enable-background:new 0 0 111.2 30.6;" xml:space="preserve">
<style type="text/css">
	.st0{fill:#8AFFB1;}
	.st1{font-family:'Bauhaus93';}
	.st2{font-size:21px;}
	.st3{fill:#D41100;}
	.st4{fill:none;}
	.st5{fill:#6AFFD7;}
	.st6{fill:#E76AFF;}
	.st7{fill:#9EF400;}
	.st8{fill:#FFDA35;}
</style>
<text transform="matrix(1 0 0 1 28.2001 21.4504)" class="st0 st1 st2">Educa</text>
<text transform="matrix(1 0 0 1 86.0498 21.4501)" class="st3 st1 st2">pe</text>
<rect x="28.5" y="5.4" class="st4" width="36.6" height="0.9"/>
<rect x="29.8" y="7.1" class="st4" width="47.5" height="4.9"/>
<rect x="104.5" y="18.2" class="st4" width="2.2" height="0.3"/>
<rect x="85.6" y="6.5" class="st4" width="30.5" height="4.1"/>
<line class="st4" x1="76" y1="31.9" x2="78.1" y2="31.9"/>
<path class="st5" d="M16.2,11.5h-0.7c-2.4,0-4.4-2-4.4-4.4l0,0c0-2.4,2-4.4,4.4-4.4h0.7c2.4,0,4.4,2,4.4,4.4l0,0
	C20.6,9.5,18.6,11.5,16.2,11.5z"/>
<path class="st6" d="M23.4,19.7h-0.7c-2.4,0-4.4-2-4.4-4.4l0,0c0-2.4,2-4.4,4.4-4.4h0.7c2.4,0,4.4,2,4.4,4.4l0,0
	C27.8,17.7,25.8,19.7,23.4,19.7z"/>
<path class="st7" d="M8.8,20.1H8.1c-2.4,0-4.4-2-4.4-4.4l0,0c0-2.4,2-4.4,4.4-4.4h0.7c2.4,0,4.4,2,4.4,4.4l0,0
	C13.2,18.1,11.2,20.1,8.8,20.1z"/>
<path class="st8" d="M16.2,27.4h-0.7c-2.4,0-4.4-2-4.4-4.4l0,0c0-2.4,2-4.4,4.4-4.4h0.7c2.4,0,4.4,2,4.4,4.4l0,0
	C20.6,25.4,18.6,27.4,16.2,27.4z"/>
</svg>
